<?xml version="1.0" encoding="UTF-8" standalone="no"?>
<!-- Created with Inkscape (http://www.inkscape.org/) -->

<svg
   xmlns:dc="http://purl.org/dc/elements/1.1/"
   xmlns:cc="http://creativecommons.org/ns#"
   xmlns:rdf="http://www.w3.org/1999/02/22-rdf-syntax-ns#"
   xmlns:svg="http://www.w3.org/2000/svg"
   xmlns="http://www.w3.org/2000/svg"
   xmlns:sodipodi="http://sodipodi.sourceforge.net/DTD/sodipodi-0.dtd"
   xmlns:inkscape="http://www.inkscape.org/namespaces/inkscape"
   width="19.253912mm"
   height="39.595699mm"
   viewBox="0 0 19.253912 39.595699"
   version="1.1"
   id="svg7432"
   inkscape:version="0.92.1 r15371"
   sodipodi:docname="flat.svg">
  <defs
     id="defs7426" />
  <sodipodi:namedview
     id="base"
     pagecolor="#ffffff"
     bordercolor="#666666"
     borderopacity="1.0"
     inkscape:pageopacity="0.0"
     inkscape:pageshadow="2"
     inkscape:zoom="3.959798"
     inkscape:cx="-10.202764"
     inkscape:cy="66.049062"
     inkscape:document-units="mm"
     inkscape:current-layer="layer1"
     showgrid="false"
     fit-margin-top="0"
     fit-margin-left="0"
     fit-margin-right="0"
     fit-margin-bottom="0"
     inkscape:window-width="1920"
     inkscape:window-height="1028"
     inkscape:window-x="-8"
     inkscape:window-y="-8"
     inkscape:window-maximized="1" />
  <metadata
     id="metadata7429">
    <rdf:RDF>
      <cc:Work
         rdf:about="">
        <dc:format>image/svg+xml</dc:format>
        <dc:type
           rdf:resource="http://purl.org/dc/dcmitype/StillImage" />
        <dc:title />
      </cc:Work>
    </rdf:RDF>
  </metadata>
  <g
     inkscape:label="Layer 1"
     inkscape:groupmode="layer"
     id="layer1"
     transform="translate(-35.850876,143.22911)">
    <path
       id="rect8114"
       style="color:#000000;font-style:normal;font-variant:normal;font-weight:normal;font-stretch:normal;font-size:medium;line-height:normal;font-family:sans-serif;font-variant-ligatures:normal;font-variant-position:normal;font-variant-caps:normal;font-variant-numeric:normal;font-variant-alternates:normal;font-feature-settings:normal;text-indent:0;text-align:start;text-decoration:none;text-decoration-line:none;text-decoration-style:solid;text-decoration-color:#000000;letter-spacing:normal;word-spacing:normal;text-transform:none;writing-mode:lr-tb;direction:ltr;text-orientation:mixed;dominant-baseline:auto;baseline-shift:baseline;text-anchor:start;white-space:normal;shape-padding:0;clip-rule:nonzero;display:inline;overflow:visible;visibility:visible;opacity:1;isolation:auto;mix-blend-mode:normal;color-interpolation:sRGB;color-interpolation-filters:linearRGB;solid-color:#000000;solid-opacity:1;vector-effect:none;fill:#00b2ff;fill-opacity:1;fill-rule:nonzero;stroke:none;stroke-width:1.29999995;stroke-linecap:square;stroke-linejoin:miter;stroke-miterlimit:4;stroke-dasharray:none;stroke-dashoffset:0;stroke-opacity:1;paint-order:markers stroke fill;color-rendering:auto;image-rendering:auto;shape-rendering:auto;text-rendering:auto;enable-background:accumulate"
       d="m 43.356736,-141.77989 v 0.65039 3.58984 h 4.240234 v -4.24023 z m 1.300781,1.29882 h 1.640625 v 1.64063 h -1.640625 z m 4.914062,-1.29882 v 0.65039 3.58984 h 4.240238 v -4.24023 z m 1.298829,1.29882 h 1.640625 v 1.64063 h -1.640625 z m -13.726563,-1.29882 v 0.65039 3.58984 h 4.240234 v -4.24023 z m 1.298828,1.29882 h 1.640625 v 1.64063 h -1.640625 z m 4.914063,3.91016 v 0.65039 3.58985 h 4.240234 v -4.24024 z m 1.300781,1.30078 h 1.640625 v 1.64063 h -1.640625 z m 4.914062,-1.30078 v 0.65039 3.58985 h 4.240238 v -4.24024 z m 1.298829,1.30078 h 1.640625 v 1.64063 h -1.640625 z m -13.726563,-1.30078 v 0.65039 3.58985 h 4.240234 v -4.24024 z m 1.298828,1.30078 h 1.640625 v 1.64063 h -1.640625 z m 4.914063,9.1211 v 0.65039 3.58984 h 4.240234 v -4.24023 z m 1.300781,1.29882 h 1.640625 v 1.64063 h -1.640625 z m 4.914062,-1.29882 v 0.65039 3.58984 h 4.240238 v -4.24023 z m 1.298829,1.29882 h 1.640625 v 1.64063 h -1.640625 z m -13.726563,-1.29882 v 0.65039 3.58984 h 4.240234 v -4.24023 z m 1.298828,1.29882 h 1.640625 v 1.64063 h -1.640625 z m 4.914063,3.91016 v 0.65039 3.58984 h 4.240234 v -4.24023 z m 1.300781,1.30078 h 1.640625 v 1.64063 h -1.640625 z m 4.914062,-1.30078 v 0.65039 3.58984 h 4.240238 v -4.24023 z m 1.298829,1.30078 h 1.640625 v 1.64063 h -1.640625 z m -13.726563,-1.30078 v 0.65039 3.58984 h 4.240234 v -4.24023 z m 1.298828,1.30078 h 1.640625 v 1.64063 h -1.640625 z m 11.128906,3.91016 v 0.65039 3.58984 h 4.240238 v -4.24023 z m 1.298829,1.30078 h 1.640625 v 1.63867 h -1.640625 z m -13.726563,-1.30078 v 0.65039 3.58984 h 4.240234 v -4.24023 z m 1.298828,1.30078 h 1.640625 v 1.63867 h -1.640625 z m 4.914063,-16.93164 v 0.65039 3.58984 h 4.240234 v -4.24023 z m 1.300781,1.30078 h 1.640625 v 1.63867 h -1.640625 z m 4.914062,-1.30078 v 0.65039 3.58984 h 4.240238 v -4.24023 z m 1.298829,1.30078 h 1.640625 v 1.63867 h -1.640625 z m -13.726563,-1.30078 v 0.65039 3.58984 h 4.240234 v -4.24023 z m 1.298828,1.30078 h 1.640625 v 1.63867 h -1.640625 z m 11.128906,19.54102 v 0.65039 3.58984 h 4.240238 v -4.24023 z m 1.298829,1.29882 h 1.640625 v 1.64063 h -1.640625 z m -13.726563,-1.29882 v 0.65039 3.58984 h 4.240234 v -4.24023 z m 1.298828,1.29882 h 1.640625 v 1.64063 h -1.640625 z m -1.941406,-34.00976 a 0.65006498,0.65006498 0 0 0 -0.650391,0.65039 v 3.33398 31.62891 3.33203 a 0.65006498,0.65006498 0 0 0 0.650391,0.65039 h 5.689453 a 0.65006498,0.65006498 0 0 0 0.648438,-0.65039 v -3.33203 -5.25195 h 5.27539 v 5.25195 3.33203 a 0.65006498,0.65006498 0 0 0 0.650391,0.65039 h 5.689448 a 0.65006498,0.65006498 0 0 0 0.6504,-0.65039 v -3.33203 -31.62891 -3.33398 a 0.65006498,0.65006498 0 0 0 -0.6504,-0.65039 z m 0.648438,1.29883 h 16.654292 v 2.68554 31.62891 2.68359 h -4.388668 v -2.68359 -5.90234 a 0.65006498,0.65006498 0 0 0 -0.65039,-0.6504 H 42.19072 a 0.65006498,0.65006498 0 0 0 -0.650391,0.6504 v 5.90234 2.68359 h -4.390624 v -2.68359 -31.62891 z m 6.737327,0.92157 h 2.939964 v 2.93996 h -2.939964 z m 6.214019,0 h 2.939965 v 2.93996 h -2.939965 z m -12.428039,0 h 2.939965 v 2.93996 h -2.939965 z m 6.21402,5.21026 h 2.939964 v 2.93997 h -2.939964 z m 6.214019,0 h 2.939965 v 2.93997 h -2.939965 z m -12.428039,0 h 2.939965 v 2.93997 h -2.939965 z m 6.21402,10.42052 h 2.939964 v 2.93997 h -2.939964 z m 6.214019,0 h 2.939965 v 2.93997 h -2.939965 z m -12.428039,0 h 2.939965 v 2.93997 h -2.939965 z m 6.21402,5.21026 h 2.939964 v 2.93996 h -2.939964 z m 6.214019,0 h 2.939965 v 2.93996 h -2.939965 z m -12.428039,0 h 2.939965 v 2.93996 h -2.939965 z m 12.428047,5.21026 h 2.939965 v 2.93996 h -2.939965 z m -12.42804,0 h 2.939965 v 2.93996 h -2.939965 z m 6.214013,-15.63079 h 2.939964 v 2.93997 h -2.939964 z m 6.214019,0 h 2.939965 v 2.93997 h -2.939965 z m -12.428039,0 h 2.939965 v 2.93997 h -2.939965 z m 12.428047,20.84105 h 2.939965 v 2.93997 h -2.939965 z m -12.42804,0 h 2.939965 v 2.93997 h -2.939965 z m -1.292846,-32.71056 v 3.33365 31.62907 3.33365 h 5.68957 v -3.33365 -5.90144 h 6.57479 v 5.90144 3.33365 h 5.68958 v -3.33365 -31.62907 -3.33365 z" />
  </g>
</svg>
