<?xml version="1.0" encoding="UTF-8" standalone="no"?>
<!-- Created with Inkscape (http://www.inkscape.org/) -->

<svg
   xmlns:dc="http://purl.org/dc/elements/1.1/"
   xmlns:cc="http://creativecommons.org/ns#"
   xmlns:rdf="http://www.w3.org/1999/02/22-rdf-syntax-ns#"
   xmlns:svg="http://www.w3.org/2000/svg"
   xmlns="http://www.w3.org/2000/svg"
   xmlns:sodipodi="http://sodipodi.sourceforge.net/DTD/sodipodi-0.dtd"
   xmlns:inkscape="http://www.inkscape.org/namespaces/inkscape"
   width="32.804161mm"
   height="34.066036mm"
   viewBox="0 0 32.80416 34.066036"
   version="1.1"
   id="svg6172"
   inkscape:version="0.92.1 r15371"
   sodipodi:docname="house.svg">
  <defs
     id="defs6166" />
  <sodipodi:namedview
     id="base"
     pagecolor="#ffffff"
     bordercolor="#666666"
     borderopacity="1.0"
     inkscape:pageopacity="0.0"
     inkscape:pageshadow="2"
     inkscape:zoom="7.9195959"
     inkscape:cx="51.783609"
     inkscape:cy="37.601209"
     inkscape:document-units="mm"
     inkscape:current-layer="layer1"
     showgrid="false"
     fit-margin-top="0"
     fit-margin-left="0"
     fit-margin-right="0"
     fit-margin-bottom="0"
     inkscape:window-width="1920"
     inkscape:window-height="1028"
     inkscape:window-x="-8"
     inkscape:window-y="-8"
     inkscape:window-maximized="1" />
  <metadata
     id="metadata6169">
    <rdf:RDF>
      <cc:Work
         rdf:about="">
        <dc:format>image/svg+xml</dc:format>
        <dc:type
           rdf:resource="http://purl.org/dc/dcmitype/StillImage" />
        <dc:title></dc:title>
      </cc:Work>
    </rdf:RDF>
  </metadata>
  <g
     inkscape:label="Layer 1"
     inkscape:groupmode="layer"
     id="layer1"
     transform="translate(180.27373,73.830023)">
    <path
       style="fill:#00b2ff;fill-opacity:1;stroke:none;stroke-width:0.33408868;stroke-linecap:butt;stroke-linejoin:round;stroke-miterlimit:4;stroke-dasharray:none;stroke-opacity:1;paint-order:markers stroke fill"
       d="m 68.226562,-37.746094 a 5.33341,2.6789029 5.2502585e-7 0 0 -2.523437,0.394532 5.33341,2.6789029 5.2502585e-7 0 0 -1.824219,0.9375 L 35.359375,-11.685547 7.078125,12.833984 a 5.33341,2.6789029 5.2502585e-7 0 0 4.603516,4.023438 l 5.072265,0.0039 v 68.761719 c 0,0.01319 0.0019,0.0259 0.002,0.03906 v 0.132813 c 0,2.886119 2.322862,5.208984 5.208985,5.208984 h 32.078125 v -0.0078 h 0.166015 a 0.16706105,0.16706105 0 0 0 0.119141,-0.04297 0.16706105,0.16706105 0 0 0 0.05078,-0.119141 V 47.820312 h 27.947266 v 43.013672 0.169922 H 114.4043 c 0.0513,0 0.10136,-0.0064 0.15234,-0.0078 0.005,-1.5e-4 0.0104,1.64e-4 0.0156,0 2.97577,0 5.37304,-2.397297 5.37304,-5.373047 V 16.9375 l 5.05664,0.0039 a 5.33341,2.6789029 5.2502585e-7 0 0 4.63086,-4.013672 l -28.375,-24.771484 -28.134763,-24.5625 A 5.33341,2.6789029 5.2502585e-7 0 0 68.226532,-37.7461 Z"
       transform="matrix(0.26458333,0,0,0.26458333,-181.95588,-63.842104)"
       id="rect4485"
       inkscape:connector-curvature="0" />
  </g>
</svg>
