<?xml version="1.0" encoding="UTF-8" standalone="no"?>
<!-- Created with Inkscape (http://www.inkscape.org/) -->

<svg
   xmlns:dc="http://purl.org/dc/elements/1.1/"
   xmlns:cc="http://creativecommons.org/ns#"
   xmlns:rdf="http://www.w3.org/1999/02/22-rdf-syntax-ns#"
   xmlns:svg="http://www.w3.org/2000/svg"
   xmlns="http://www.w3.org/2000/svg"
   xmlns:sodipodi="http://sodipodi.sourceforge.net/DTD/sodipodi-0.dtd"
   xmlns:inkscape="http://www.inkscape.org/namespaces/inkscape"
   width="48.925087mm"
   height="40.421127mm"
   viewBox="0 0 48.925087 40.421127"
   version="1.1"
   id="svg5522"
   inkscape:version="0.92.1 r15371"
   sodipodi:docname="land.svg">
  <defs
     id="defs5516" />
  <sodipodi:namedview
     id="base"
     pagecolor="#ffffff"
     bordercolor="#666666"
     borderopacity="1.0"
     inkscape:pageopacity="0.0"
     inkscape:pageshadow="2"
     inkscape:zoom="0.35"
     inkscape:cx="-1061.8289"
     inkscape:cy="84.957811"
     inkscape:document-units="mm"
     inkscape:current-layer="layer1"
     showgrid="false"
     fit-margin-top="0"
     fit-margin-left="0"
     fit-margin-right="0"
     fit-margin-bottom="0"
     inkscape:window-width="1920"
     inkscape:window-height="1028"
     inkscape:window-x="-8"
     inkscape:window-y="-8"
     inkscape:window-maximized="1" />
  <metadata
     id="metadata5519">
    <rdf:RDF>
      <cc:Work
         rdf:about="">
        <dc:format>image/svg+xml</dc:format>
        <dc:type
           rdf:resource="http://purl.org/dc/dcmitype/StillImage" />
        <dc:title />
      </cc:Work>
    </rdf:RDF>
  </metadata>
  <g
     inkscape:label="Layer 1"
     inkscape:groupmode="layer"
     id="layer1"
     transform="translate(-128.99579,-130.89063)">
    <path
       style="fill:#00b2ff;fill-opacity:1;stroke:none;stroke-width:4.91338587;stroke-linecap:square;stroke-linejoin:round;stroke-miterlimit:4;stroke-dasharray:none;stroke-opacity:1;paint-order:markers stroke fill"
       d="M 44.605469 0 A 11.071428 11.071428 0 0 0 43.585938 0.056640625 C 37.230325 0.53743976 32.074594 5.4455551 31.214844 11.691406 C 31.133923 11.726346 31.055205 11.76523 30.974609 11.800781 C 29.216525 10.709656 27.199552 10.007006 25.035156 9.8222656 A 11.071428 11.071428 0 0 0 23.890625 9.7617188 A 11.071428 11.071428 0 0 0 22.908203 9.8125 C 15.919285 10.318765 10.361328 16.182022 10.361328 23.294922 C 10.361328 25.493664 10.901908 27.566812 11.841797 29.40625 C 5.1907454 30.243799 0.00390625 35.942487 0.00390625 42.8125 C 0.00390625 42.920538 0.016982567 43.02536 0.01953125 43.132812 C 0.015653891 43.265177 0 43.39408 0 43.527344 C 0 50.398054 5.1927323 56.103756 11.845703 56.941406 C 10.906313 58.78137 10.363281 60.854616 10.363281 63.052734 C 10.363281 70.495002 16.446404 76.583984 23.888672 76.583984 C 26.57275 76.583984 29.073755 75.783679 31.183594 74.421875 C 31.683079 78.587316 34.091745 82.175625 37.503906 84.298828 L 37.503906 139.28516 L 2.4628906 139.28516 A 2.4569385 2.4569385 0 0 0 0.00390625 141.74414 L 0.00390625 150.31445 A 2.4569385 2.4569385 0 0 0 2.4628906 152.77344 L 182.46289 152.77344 A 2.4569385 2.4569385 0 0 0 184.91406 150.31445 L 184.91406 141.74414 A 2.4569385 2.4569385 0 0 0 182.46289 139.28516 L 51.699219 139.28516 L 51.699219 84.832031 C 55.602334 82.814367 58.411347 78.960184 58.957031 74.425781 C 61.065346 75.784697 63.563162 76.583984 66.244141 76.583984 C 73.686408 76.583984 79.775391 70.495002 79.775391 63.052734 C 79.775391 60.85391 79.233834 58.779853 78.292969 56.939453 C 84.942997 56.099092 90.132812 50.395965 90.132812 43.527344 C 90.132812 43.406616 90.118419 43.289913 90.115234 43.169922 C 90.11841 43.050096 90.132812 42.933057 90.132812 42.8125 C 90.132812 35.943812 84.943138 30.245517 78.292969 29.40625 C 79.233834 27.566761 79.775391 25.493746 79.775391 23.294922 C 79.775391 16.187349 74.218488 10.328325 67.236328 9.8144531 A 11.071428 11.071428 0 0 0 66.248047 9.7617188 A 11.071428 11.071428 0 0 0 65.126953 9.8203125 C 62.869618 10.007677 60.768571 10.754245 58.957031 11.921875 C 58.194715 5.5649931 52.98453 0.54187413 46.548828 0.056640625 A 11.071428 11.071428 0 0 0 45.535156 0 A 11.071428 11.071428 0 0 0 45.072266 0.0234375 A 11.071428 11.071428 0 0 0 44.605469 0 z M 24.773438 71.623047 C 24.48245 71.652251 24.187852 71.667969 23.888672 71.667969 C 23.84519 71.667969 23.803087 71.662739 23.759766 71.662109 A 11.071428 11.071428 0 0 0 23.890625 71.666016 A 11.071428 11.071428 0 0 0 24.773438 71.623047 z M 65.359375 71.623047 A 11.071428 11.071428 0 0 0 66.248047 71.666016 A 11.071428 11.071428 0 0 0 66.359375 71.662109 C 66.320622 71.662613 66.283021 71.667969 66.244141 71.667969 C 65.94496 71.667969 65.650362 71.652251 65.359375 71.623047 z "
       transform="matrix(0.26458333,0,0,0.26458333,128.99579,130.89063)"
       id="rect4805" />
  </g>
</svg>
