<?xml version="1.0" encoding="UTF-8" standalone="no"?>
<!-- Created with Inkscape (http://www.inkscape.org/) -->

<svg
   xmlns:dc="http://purl.org/dc/elements/1.1/"
   xmlns:cc="http://creativecommons.org/ns#"
   xmlns:rdf="http://www.w3.org/1999/02/22-rdf-syntax-ns#"
   xmlns:svg="http://www.w3.org/2000/svg"
   xmlns="http://www.w3.org/2000/svg"
   xmlns:sodipodi="http://sodipodi.sourceforge.net/DTD/sodipodi-0.dtd"
   xmlns:inkscape="http://www.inkscape.org/namespaces/inkscape"
   width="67.729645mm"
   height="34.065857mm"
   viewBox="0 0 67.729645 34.065857"
   version="1.1"
   id="svg8363"
   inkscape:version="0.92.1 r15371"
   sodipodi:docname="terrace.svg">
  <defs
     id="defs8357" />
  <sodipodi:namedview
     id="base"
     pagecolor="#ffffff"
     bordercolor="#666666"
     borderopacity="1.0"
     inkscape:pageopacity="0.0"
     inkscape:pageshadow="2"
     inkscape:zoom="2.8"
     inkscape:cx="76.078928"
     inkscape:cy="108.89309"
     inkscape:document-units="mm"
     inkscape:current-layer="layer1"
     showgrid="false"
     fit-margin-top="0"
     fit-margin-left="0"
     fit-margin-right="0"
     fit-margin-bottom="0"
     inkscape:window-width="1920"
     inkscape:window-height="1028"
     inkscape:window-x="-8"
     inkscape:window-y="-8"
     inkscape:window-maximized="1" />
  <metadata
     id="metadata8360">
    <rdf:RDF>
      <cc:Work
         rdf:about="">
        <dc:format>image/svg+xml</dc:format>
        <dc:type
           rdf:resource="http://purl.org/dc/dcmitype/StillImage" />
        <dc:title />
      </cc:Work>
    </rdf:RDF>
  </metadata>
  <g
     inkscape:label="Layer 1"
     inkscape:groupmode="layer"
     id="layer1"
     transform="translate(-62.141718,-165.10593)">
    <path
       style="fill:#00b2ff;fill-opacity:1;stroke:none;stroke-width:0.33408868;stroke-linecap:butt;stroke-linejoin:round;stroke-miterlimit:4;stroke-dasharray:none;stroke-opacity:1;paint-order:markers stroke fill"
       d="M 61.869141 0.00390625 A 5.33341 2.6789029 5.2502585e-007 0 0 59.345703 0.3984375 A 5.33341 2.6789029 5.2502585e-007 0 0 57.521484 1.3359375 L 29.001953 26.064453 L 0.72070312 50.583984 A 5.33341 2.6789029 5.2502585e-007 0 0 5.3242188 54.607422 L 10.402344 54.611328 L 10.402344 123.37109 C 10.402344 126.34687 12.79964 128.75195 15.775391 128.75195 L 47.849609 128.75195 A 0.16706105 0.16706105 0 0 0 48.019531 128.58203 L 48.019531 85.568359 L 75.966797 85.568359 L 75.966797 128.58203 A 0.16706105 0.16706105 0 0 0 76.019531 128.70117 A 0.16706105 0.16706105 0 0 0 76.136719 128.75195 L 108.21094 128.75195 L 113.85156 128.75195 A 0.16706105 0.16706105 0 0 0 113.96875 128.70117 A 0.16706105 0.16706105 0 0 0 114.02148 128.58203 L 114.02148 85.568359 L 141.96875 85.568359 L 141.96875 128.58203 A 0.16706105 0.16706105 0 0 0 142.04297 128.72266 A 0.16706105 0.16706105 0 0 0 142.13867 128.75195 L 174.21289 128.75195 L 179.85352 128.75195 A 0.16706105 0.16706105 0 0 0 179.9707 128.70117 A 0.16706105 0.16706105 0 0 0 180.02344 128.58203 L 180.02344 85.568359 L 207.9707 85.568359 L 207.9707 128.58203 A 0.16706105 0.16706105 0 0 0 208.13281 128.75195 L 240.21484 128.75195 C 243.19058 128.75195 245.58789 126.34687 245.58789 123.37109 L 245.58789 54.6875 L 250.64453 54.691406 A 5.33341 2.6789029 5.2502585e-007 0 0 255.27734 50.675781 L 226.90234 25.90625 L 198.76562 1.3417969 A 5.33341 2.6789029 5.2502585e-007 0 0 191.3457 0.3984375 A 5.33341 2.6789029 5.2502585e-007 0 0 189.52344 1.3359375 L 161.04297 26.029297 L 160.90234 25.90625 L 132.76562 1.3417969 A 5.33341 2.6789029 5.2502585e-007 0 0 125.3457 0.3984375 A 5.33341 2.6789029 5.2502585e-007 0 0 123.52148 1.3359375 L 95.041016 26.029297 L 94.900391 25.90625 L 66.765625 1.3417969 A 5.33341 2.6789029 5.2502585e-007 0 0 61.869141 0.00390625 z "
       transform="matrix(0.26458333,0,0,0.26458333,62.141718,165.10593)"
       id="path4518" />
  </g>
</svg>
